<?xml version="1.0" encoding="iso-8859-1"?>
<!-- Generator: Adobe Illustrator 19.0.0, SVG Export Plug-In . SVG Version: 6.00 Build 0)  -->
<svg version="1.1" id="Capa_1" xmlns="http://www.w3.org/2000/svg" xmlns:xlink="http://www.w3.org/1999/xlink" x="0px" y="0px"
	 viewBox="0 0 512.076 512.076" style="enable-background:new 0 0 512.076 512.076;" xml:space="preserve">
<g transform="translate(-1 -1)">
	<g transform="translate(2 2)">
		<path style="fill:#A4C2F7;" d="M502.495,255.056c0,136.672-110.795,247.467-247.467,247.467c-4.267,0-8.533-0.085-12.715-0.341
			h-0.171C110.701,495.271,7.669,386.679,7.669,255.056S110.701,14.842,242.143,7.931h0.171c4.181-0.256,8.448-0.341,12.715-0.341
			C391.7,7.59,502.495,118.384,502.495,255.056z"/>
		<path style="fill:#E3E7F2;" d="M476.895,255.056c-0.003,131.662-103.098,240.27-234.581,247.125h-0.171
			C110.701,495.271,7.669,386.679,7.669,255.056S110.701,14.842,242.143,7.931h0.171
			C373.797,14.786,476.892,123.394,476.895,255.056z"/>
		<path style="fill:#A4C2F7;" d="M499.423,430.246l-26.027,43.349c-4.39,7.359-10.476,13.561-17.749,18.091
			c-4.15,2.614-8.665,4.598-13.397,5.888c-43.179,11.861-138.496,14.336-291.243-138.496S0.649,111.014,12.511,67.835
			c1.29-4.732,3.274-9.247,5.888-13.397c4.53-7.274,10.732-13.359,18.091-17.749l43.349-26.027
			c9.899-5.927,22.707-3.035,29.099,6.571l37.632,56.32l31.488,47.275c6.226,9.447,4.187,22.088-4.693,29.099l-10.411,8.107
			l-28.416,22.016c-8.363,6.532-10.781,18.151-5.717,27.477c11.435,20.48,22.187,44.629,75.605,98.133s77.653,64.171,98.133,75.605
			c9.326,5.063,20.945,2.646,27.477-5.717l22.016-28.416l8.107-10.411c7.011-8.881,19.651-10.919,29.099-4.693l48.725,32.512
			l54.869,36.608C502.457,407.538,505.349,420.347,499.423,430.246z"/>
		<path style="fill:#E3E7F2;" d="M482.356,447.312l-26.027,43.349c-0.256,0.341-0.427,0.683-0.683,1.024
			c-4.15,2.614-8.665,4.598-13.397,5.888c-43.179,11.861-138.496,14.336-291.243-138.496S0.649,111.014,12.511,67.835
			c1.29-4.732,3.274-9.247,5.888-13.397c0.341-0.256,0.683-0.427,1.024-0.683l43.349-26.027c9.899-5.927,22.707-3.035,29.099,6.571
			l37.632,56.32l31.488,47.275c6.15,9.464,4.12,22.049-4.693,29.099l-28.587,22.187l-10.24,7.936
			c-8.382,6.52-10.803,18.155-5.717,27.477c11.435,20.48,22.187,44.629,75.605,98.133s77.653,64.171,98.133,75.605
			c9.323,5.086,20.957,2.665,27.477-5.717l7.936-10.24l22.187-28.587c7.05-8.814,19.635-10.843,29.099-4.693l48.725,32.512
			l54.869,36.608C485.391,424.605,488.283,437.414,482.356,447.312z"/>
		<g>
			<path style="fill:#FFFFFF;" d="M242.143,502.182h0.171c4.181,0.256,8.448,0.341,12.715,0.341c3.738,0,7.39-0.299,11.093-0.469
				c-77.213-4.534-147.866-44.909-190.97-109.131S21.45,248.018,46.507,174.843c-17.98-49.579-14.421-85.026-8.397-106.974
				c1.29-4.732,3.274-9.247,5.888-13.397c4.525-7.286,10.728-13.384,18.091-17.783l41.532-24.934
				c-6.996-5.086-16.349-5.516-23.782-1.092L36.489,36.688c-7.359,4.39-13.561,10.476-18.091,17.749
				c-2.614,4.15-4.598,8.665-5.888,13.397c-6.025,21.948-9.583,57.395,8.397,107.008C-4.231,248.292,6.547,329.28,50.018,393.6
				S164.617,498.119,242.143,502.182z"/>
			<path style="fill:#FFFFFF;" d="M417.272,501.951c-19.303-1.695-38.286-6.001-56.431-12.8c-4.42,1.519-8.969,2.756-13.491,4.028
				C369.88,500.555,393.618,503.533,417.272,501.951z"/>
		</g>
	</g>
	<path style="fill:#428DFF;" d="M258.052,2.08c-4.713,0-8.533,3.821-8.533,8.533s3.82,8.533,8.533,8.533
		c84.458-0.063,162.608,44.69,205.298,117.566s43.507,162.929,2.148,236.568l-69.538-46.362
		c-13.154-8.697-30.782-5.834-40.508,6.579l-30.157,38.818c-3.883,5.113-10.932,6.596-16.546,3.482l-5.743-3.166
		c-19.038-10.377-42.726-23.296-90.453-71.04c-47.727-47.744-60.672-71.45-71.049-90.453l-3.149-5.743
		c-3.161-5.612-1.705-12.695,3.413-16.606l38.793-30.182c12.412-9.725,15.279-27.351,6.588-40.508l-69.12-103.646
		C109.12,1.056,91.25-2.966,77.461,5.323L34.12,31.358C20.502,39.364,10.511,52.33,6.242,67.539
		c-15.607,56.866-3.866,155.008,140.706,299.597c62.976,62.976,117.12,100.693,162.901,122.027
		c-70.464,15.921-144.343-1.121-200.714-46.297s-89.096-113.57-88.907-185.809c0-4.713-3.821-8.533-8.533-8.533
		s-8.533,3.821-8.533,8.533c0.132,140.731,114.159,254.797,254.891,254.976c26.365,0.009,52.569-4.12,77.653-12.237
		c22.631,8.453,46.551,12.939,70.707,13.261c13.543,0.058,27.033-1.704,40.107-5.239c15.212-4.264,28.18-14.256,36.181-27.878
		l26.061-43.315c8.301-13.791,4.282-31.672-9.122-40.585l-19.891-13.252c44.859-78.9,44.358-175.706-1.315-254.138
		S348.813,2.005,258.052,2.08z M494.092,427.842l-26.001,43.341c-5.749,9.849-15.089,17.088-26.061,20.198
		c-24.823,6.827-58.445,7.68-101.649-7.893c-0.685-0.384-1.421-0.671-2.185-0.853c-47.787-17.741-107.119-55.552-179.2-127.607
		C20.245,216.284,8.29,124.559,22.703,72.054c3.116-10.968,10.354-20.307,20.198-26.061l43.341-26.001
		c5.983-3.6,13.739-1.855,17.604,3.959l37.547,56.371l31.514,47.266c3.774,5.707,2.534,13.356-2.85,17.579l-38.801,30.182
		c-11.808,9.029-15.18,25.366-7.91,38.332l3.081,5.598c10.906,20.002,24.465,44.885,73.967,94.379s74.377,63.053,94.37,73.958
		l5.606,3.089c12.966,7.269,29.303,3.898,38.332-7.91l30.182-38.801c4.224-5.381,11.87-6.62,17.579-2.85l103.637,69.12
		C495.915,414.114,497.674,421.857,494.092,427.842z"/>
</g>
<g>
</g>
<g>
</g>
<g>
</g>
<g>
</g>
<g>
</g>
<g>
</g>
<g>
</g>
<g>
</g>
<g>
</g>
<g>
</g>
<g>
</g>
<g>
</g>
<g>
</g>
<g>
</g>
<g>
</g>
</svg>
